<?xml version="1.0" encoding="utf-8"?>
<!-- Generator: Adobe Illustrator 15.0.0, SVG Export Plug-In . SVG Version: 6.00 Build 0)  -->
<!DOCTYPE svg PUBLIC "-//W3C//DTD SVG 1.1//EN" "http://www.w3.org/Graphics/SVG/1.1/DTD/svg11.dtd">
<svg version="1.1" id="Layer_2" xmlns="http://www.w3.org/2000/svg" xmlns:xlink="http://www.w3.org/1999/xlink" x="0px" y="0px"
	 width="864px" height="864px" viewBox="0 0 864 864" enable-background="new 0 0 864 864" xml:space="preserve">
<path fill="#A1DBD8" d="M784.5,164.833l9.333-11c0,0,23.5,1.833,34.5,14.333s8.917,31.333,7.167,40.583
	c-1.704,9.009-10.167,34.25-10.167,34.25L663.167,749.5c0,0-7.166,21-20,32.833S614.333,799,597.833,797.5s-176.167-24-176.167-24
	s-13.667-1.334-22.833-10.667s-13-20.833-12.833-31.5l13.5-9.833L581,475.668L784.5,164.833z"/>
<path fill="#A0DBD7" d="M84,640l-27,28l-34.5-17c0,0-5.5-2.25-5.5-12.25s0-358,0-358S16.75,265.5,30,262s124.75-30.75,124.75-30.75
	s4.5-2,9-0.25s37.5,19.75,37.5,19.75l-9.75,18.75c0,0-103.25,53.75-109.75,76S70,491.5,65.75,509S84,640,84,640z"/>
<path fill="#FFFFFF" d="M68.75,280.25l122-30c0,0,9-2.75,12.75,2.5c3.227,4.517,2.75,6.5,2.75,15s0,349,0,349s0.5,7.75-2.75,13
	S196,638.5,190.25,640S68.5,670,68.5,670s-6,1.75-10.25-1c-3.671-2.376-5.25-6.5-5.25-13.75s0-355.5,0-355.5S52.5,284,68.75,280.25z
	"/>
<path fill="#BCEFED" d="M136.899,495c-18.58,0-36.787,19.531-40.667,43.625c-3.88,24.094,8.037,43.625,26.618,43.625
	c18.58,0,36.787-19.531,40.667-43.625S155.48,495,136.899,495z M162.072,538.625c-3.497,21.804-19.907,39.479-36.653,39.479
	c-16.747,0-27.488-17.675-23.991-39.479c3.497-21.804,19.907-39.479,36.653-39.479C154.828,499.146,165.569,516.821,162.072,538.625
	z"/>
<path fill="#E4E4E4" d="M167.612,361.375C163.058,388.782,142.245,411,121.127,411c-21.119,0-34.544-22.218-29.989-49.625
	c4.556-27.407,25.368-49.625,46.486-49.625C158.741,311.75,172.168,333.968,167.612,361.375z"/>
<path fill="#2D658A" d="M165.244,360.25c-3.658,21.685-20.378,39.263-37.342,39.263c-16.965,0-27.75-17.579-24.091-39.263
	s20.378-39.263,37.343-39.263C158.117,320.987,168.904,338.565,165.244,360.25z"/>
<path fill="#5DBFFE" d="M164.563,360.25c-3.193,18.929-17.789,34.274-32.598,34.274s-24.224-15.345-21.03-34.274
	c3.195-18.929,17.789-34.274,32.599-34.274C158.342,325.976,167.758,341.321,164.563,360.25z"/>
<path fill="#009ADD" d="M148.438,360.75c-1.303,7.722-7.257,13.982-13.298,13.982c-6.041,0-9.882-6.26-8.579-13.982
	s7.257-13.982,13.299-13.982C145.9,346.768,149.742,353.028,148.438,360.75z"/>
<path opacity="0.61" fill="#86D1FF" d="M147.688,343.25c-1.303,7.722-7.257,13.982-13.298,13.982c-6.041,0-9.882-6.26-8.579-13.982
	s7.257-13.982,13.299-13.982C145.15,329.268,148.992,335.528,147.688,343.25z"/>
<path opacity="0.61" fill="#86D1FF" d="M133.652,372.75c-0.524,3.107-2.92,5.627-5.352,5.627s-3.977-2.52-3.453-5.627
	s2.92-5.627,5.352-5.627C132.63,367.123,134.176,369.643,133.652,372.75z"/>
<path fill="#FFFFFF" d="M411.333,761l171.333,23.667c0,0,31.667,3.999,47-12.334s19.667-29.666,25.667-47.666
	s166.999-520.334,166.999-520.334S828.75,182,821.25,169c0,0-5.25-15.25-36.584-16c-32.672-0.783-166.333-4.333-166.333-4.333
	S593.334,148,579.667,166c0,0-10.333,13-18,34S390.333,703,390.333,703s-6.667,21.001-3.667,33.667S398,758.667,411.333,761z"/>
<polygon fill="#95DCD4" points="563.5,214.5 806.75,223.75 651,711.75 406,681.75 "/>
<polygon fill="#70D0C8" points="565,217.5 803.25,226.25 648.5,708.75 409,680.25 "/>
<path fill="#58ABA5" d="M663.955,221.134L541.5,590.5c0,0,22,29.75,23.25,30.25s100.75,18,106.25,16.75
	c0.116-0.026,0.25-0.06,0.381-0.092L803.25,226.25L663.955,221.134z"/>
<polygon fill="#EBEBEB" points="409.391,680.297 648.5,708.75 682.676,602.192 539.25,587.75 "/>
<path fill="#A77B52" d="M655,579.25l-0.75-15c0,0-13-5.75-14.25-6.25s-32.25-1.25-32.25-1.25L579,567l-18.75,35.75l-19.693,95.477
	l33.495,4.102C574.65,702.122,575,702,575,702s17.25-52.25,19.75-62.5s6.25-28,6.25-28l10.75,1c0,0-11.75,26-14.75,36.5
	c-2.777,9.723-13.484,48.59-15.056,54.294l30.876,3.781l36.68-91.825c0,0,2-5,2.5-10.5S655,579.25,655,579.25z"/>
<path fill="#694B4B" d="M699.166,428.5c0,0,8.834-1.5,11.167-7.5S728,370.167,731.5,351.5s2.999-45.333-19.667-50.167
	S671.667,306,659.5,321.167S633.166,373,629.333,384s-9,28.167-9,28.167s-1.166,4,0.167,6.5s7.667,6.5,7.667,6.5s15,3.5,16,3.833
	S699.166,428.5,699.166,428.5z"/>
<path fill="#544442" d="M699,338.75c-8.5,2-31-1.5-34.75-2.5s-2-7-2-7c9.824-17.722,25.13-25.938,31.642-28.779
	c-14.171,1.84-25.656,9.807-34.392,20.696C647.333,336.333,633.166,373,629.333,384s-9,28.167-9,28.167s-1.166,4,0.167,6.5
	s7.667,6.5,7.667,6.5s15,3.5,16,3.833c0.297,0.099,5.265,0.095,12.104,0.041C660.385,424.115,664.5,417,665.5,416
	c1.5-1.5,14.75-46.25,16.5-48S707.5,336.75,699,338.75z"/>
<path fill="#795550" d="M721.301,305.376c-2.49,3.477-5.962,9.303-5.801,14.624c0.25,8.25,5.5,14.5,7.75,18.25s3.5,9,1,17.5
	s-15.75,49-20.25,53.75s-15,7.25-15.5,14.75c-0.096,1.436,0.251,2.926,0.894,4.394c5.803-0.083,9.772-0.144,9.772-0.144
	S708,427,710.333,421S728,370.167,731.5,351.5C734.424,335.909,734.545,314.746,721.301,305.376z"/>
<polygon fill="#C10100" points="567.333,446.001 551.167,481.501 554.333,481.667 569.167,449.834 "/>
<path fill="#F1C087" d="M564.5,430.375c0,0-2.75-3.25-2.375-8.375s5.875-6,6.375-6s4.875,1.25,4.875,1.25s4.375,4.75,3.25,9
	S564.5,430.375,564.5,430.375z"/>
<path fill="#B5E0FA" d="M710.25,431c-5.75-3.25-19-11-19-11s-0.5-6.5-6.25-8.75l-22.75,14L649,408.5c0,0-6.5-1.25-10,7l-25.5,9
	c0,0-7.25,1.75-10.25,8.5s-14.5,31.25-14.5,31.25l-13-42.75c0,0-5.5,6-12.25,7.75l11,64.5c0,0,2,11.25,6.75,12.75s9.25-1,13.25-8.5
	s10.5-21,10.5-21l-3.25,40.5L579,567l69.834,5.167l-5.084,12.583c0,0,5,1.75,8.5,4l35.25-59.25c0,0,4.5-7.5,6.25-15
	s17.5-62.5,19.25-68.75S716,434.25,710.25,431z M675,519.25C673.75,523,662.75,544,662.75,544l4-24l13.75-27.5
	C680.5,492.5,676.25,515.5,675,519.25z"/>
<path fill="#A1D2F0" d="M574.5,493.75c0,0,2,11.25,6.75,12.75s9.25-1,13.25-8.5s10.5-21,10.5-21s11.334-22.833,13.167-27.167
	s0.667-9.5-1.833-12.666c-2.209-2.798-7.275-8.583-8.425-9.892c-1.746,1.3-3.513,3.145-4.659,5.725c-3,6.75-14.5,31.25-14.5,31.25
	l-13-42.75c0,0-5.5,6-12.25,7.75L574.5,493.75z"/>
<path fill="#F1C087" d="M644.75,584.125c0,0-5.125,2.125-6,6.25s1.375,7.625,4.875,7.625s7.75-2.375,8.875-10.75
	S644.75,584.125,644.75,584.125z"/>
<path fill="#A1D2F0" d="M663.834,454.168l-9,25.666c0,0-2.167,5.833,2,6.333s11.5,0.334,11.5,0.334s3.834,0.832,5.167-3.334
	s8.333-28.499,8.333-28.499L663.834,454.168z"/>
<path fill="#A1D2F0" d="M713.969,435.079l-16.635,9.422c0,0-6.666,3.666-8.333,10.333c-1.589,6.356-6.813,30.424-8.884,38.433
	l0.383-0.767c0,0-4.25,23-5.5,26.75S662.75,544,662.75,544l-13.916,28.167l-5.084,12.583c0,0,5,1.75,8.5,4l35.25-59.25
	c0,0,4.5-7.5,6.25-15s17.5-62.5,19.25-68.75C714.142,441.674,715.057,438.027,713.969,435.079z"/>
<path fill="#F1C087" d="M688.333,398.5c0,0-3.499,8.833-4.833,14.833s-7.668,10.667-10.834,11.833s-8.166,5.167-12.166,5.167
	s-6.333,1.167-8.5-1.667s-2.334-17.5-2.334-17.5l4.5-15c0,0,10.667-4.334,11.667-4.667S688.333,398.5,688.333,398.5z"/>
<path fill="#D4A26B" d="M684.857,408.358c1.541-4.972,3.476-9.858,3.476-9.858s-21.5-7.333-22.5-7s-11.667,4.667-11.667,4.667
	l-4.5,15c0,0,0.035,3,0.272,6.546c0.195,0.18,0.312,0.287,0.312,0.287S666.555,423.726,684.857,408.358z"/>
<path fill="#F1C087" d="M709.667,330.333c0,0,0.332,6.666,4.666,12.333S719.5,354,717,361s-9.334,21.334-11.167,25.667
	S700.5,395.333,695.5,397.5s-16.666,7.334-19.833,8.667s-9.167,4-14.667-0.833s-8.834-8-11.667-10.333s-4.832-5.5-3.666-12.833
	s4.333-20.333,6.666-25.833s9.333-11.5,17-12.833S703.001,341.333,709.667,330.333z"/>
<path fill="#A1D2F0" d="M685,411.25l-22.75,14L649,408.5c0,0-6.285-1.189-9.822,6.628c1.979,6.839,7.156,19.54,7.156,19.54l11-5.667
	l-6.833,22.834l6.333,0.333l7.167-23.333l7.5,7.667c5-4,19.749-16.501,19.749-16.501S690.75,413.5,685,411.25z"/>
<path fill="#C10100" d="M513,479.334l-21.666,47c0,0-2.168,5.166-1.334,7.833s3.834,2.834,7.334,3.334s56.499,4.667,56.499,4.667
	s7.166,1,9.333-7.5s7.335-43.333,8.001-47.167s-0.168-6.666-3.834-7s-48.666-3.5-48.666-3.5S515,476.167,513,479.334z"/>
<path fill="#EC0000" d="M567.333,480.501c-3.666-0.334-48.666-3.5-48.666-3.5S515,476.167,513,479.334l-3.432,7.444
	c0.933,3.346,2.477,8.999,2.932,11.39c0.667,3.5,2.5,6,5.167,6.333s29.5,2.667,29.5,2.667s7,1.332,9.333-1.001
	c1.838-1.838,10.601-11.841,14.24-16.007c0.198-1.27,0.346-2.195,0.427-2.659C571.833,483.667,570.999,480.835,567.333,480.501z"/>
<path fill="#695A55" d="M507,685.875c-1.375-2.25-3.625-3.125-0.875-7.25s8.125-11.25,8.625-16.375s-0.25-12.875-1.5-16.875
	s-10.875-8.625-11.375-8.625s-17.125,0.5-20.375-0.625s-21.375,9-21.375,9s-5.75,6.25-8.25,10.125s-3.75,9.25-3.75,13.75
	s0.5,8.625,0.5,8.625s-5.75,0.625-7.5,0.875c-1.484,0.212-2.692,3.119-2.341,5.295l68.224,8.118
	C507.43,690.237,507.932,687.398,507,685.875z"/>
<path fill="#C10100" d="M532.167,480.501c0,0,12.333-21.5,16.166-29s7.501-17.334,8.667-21s6.833-9.5,8.833-11.333s5.001-2,6.667-1
	s3,1.333,4.667,7.75c0,0,0-2.834-0.833-5.667s-4.833-5.667-8.25-5.75s-7.834,3.25-9.917,5.75s-5.749,8.084-7.416,13.667
	s-4.249,11.584-6.833,17.667s-10.584,22.915-13.834,27.082S530.083,482.502,532.167,480.501z"/>
<path fill="#8E7A72" d="M515.625,617c0,0,2,7.625,1.125,16.875s-4.75,21-6.125,25.375s-10.5,22-10.375,27.125
	s-5.625,0.875-7.125,0.875s-2.25-1.375-2.25-1.375s1-7.125,2.875-12.375s6-13,7.125-15.75s2.25-5.75,2.375-7.625s0.25-3.25-0.75-3.5
	s-1.25,0.25-1.25,2.625s-0.125,5.25-1.25,7.25s-4.125,3.875-11.25,4.25s-15.375-1.375-18.125-2.875s-3.125-4.375-2.125-7.25
	s3.75-6,2.125-6.75s-2.375,3-3.125,5.25s-1,7.25-2.625,12.75s-6.375,16.625-7.125,20.75L450,680.75c0,0,0.25-6.125,1.75-12.5
	s4-15.375,5.375-18.5s2.75-5.5,3.75-8.5s8.5-19,20.25-26.25c0,0,5,10.125,8.375,11.5s10.875-2.5,10.875-2.5l5.125-6.375L515.625,617
	z"/>
<path fill="#E7AE78" d="M710.931,336.209c-1.134-3.305-1.264-5.875-1.264-5.875c-6.666,11-32.667,11.833-40.334,13.167
	s-14.667,7.333-17,12.833s-5.5,18.5-6.666,25.833s0.833,10.5,3.666,12.833s6.167,5.5,11.667,10.333
	c2.242,1.971,4.564,2.683,6.748,2.759c-3.608-3.12-5.32-11-5.748-16.342c-0.5-6.25,2.5-23.25,4-29s3.25-13,18.25-15.5
	C695.418,345.389,706.166,339.233,710.931,336.209z"/>
<path fill="#AB968C" d="M513,572.875c0,0,3.875,0.375,6.125,1.5s5.75,1,8.625,0.625s7.5,1.875,7.625,6.25s-2.75,13.5-4.75,16.125
	S522.75,609.5,522.75,609.5s-5.25,8.75-9.75,11.75s-7.25,5.25-9,7.125s-5.625,3.625-9.5,3.5s-8.625-1.375-9.25-4.5
	S483.75,622,482,620s-2.5-6-2.5-9.125s0.625-9.5,0.625-9.5s5.5-23.125,5.5-23.5s8.875-6.25,8.875-6.25s6.25,1.125,8.625,1.125
	S509.375,572.125,513,572.875z"/>
<path fill="#8E7A72" d="M525.375,576.25c0,0,3.75-0.5,5.125,0.75s1.125,5.125-0.25,9s-5.625,12.125-7.125,15.375
	s-2.5,9.375,0.125,10.125s7.625-3.625,9.5-8.375s3.5-7.125,4.75-7.625s2.875-2.75,2.25-7.375s-2.625-14.375-6.5-16.5
	S525.125,573.875,525.375,576.25z"/>
<path fill="#867468" d="M490.125,611.75l-3.5,1c0,0-2.125,3.5-1.125,7.25s5.875,5,10.25,3c0,0,3.125,2.125,6.125,2
	s8.5-2.875,9.125-9.125l-7,2.75l-9.625-2.375L490.125,611.75z"/>
<path fill="#8E7A72" d="M500.25,574.125c0,0-3.625-1-6.25,0s-4.625,4.25-5.875,10s-1.75,11.75-3.125,16s-3,7.25-6,7.375
	s-3.75-6.125-3.125-11.25s0.75-6,0.375-7.125s-0.625-3.5,0.875-5.5s10.578-11.31,12.625-12.875c2.125-1.625,4-3,6.5-3
	S500.75,569.625,500.25,574.125z"/>
<path fill="#D4BFB0" d="M499.375,597.875c0,0-5.375,6-8,8.75s-5.875,6.375-5.75,9.625s2,5.375,4.5,5.875s4.875,0.125,6.25-0.875
	c0,0,1.875,2.375,5.25,2.375s8.875-2.875,9.375-7.75s-1.25-12.625-1.875-15.25s-1.875-4.5-3.875-5S500.875,596.5,499.375,597.875z"
	/>
<path fill="#4A4B68" d="M494.5,612.375c0,0,2.25,5,4,5s4.75-2.25,6-3.75s1.375-5.25-3.125-6.125S493.375,609.5,494.5,612.375z"/>
<ellipse transform="matrix(0.8148 0.5797 -0.5797 0.8148 441.9038 -188.7397)" fill="#000206" cx="516.371" cy="597.306" rx="2.79" ry="3.703"/>
<ellipse transform="matrix(0.9499 0.3126 -0.3126 0.9499 210.5869 -124.5536)" fill="#000206" cx="493.75" cy="594.5" rx="2.79" ry="3.703"/>
<path fill="#CFEDEC" d="M534.279,734.833c-3.46,13.531-16.085,24.5-28.198,24.5s-19.126-10.969-15.667-24.5
	c3.46-13.531,16.085-24.5,28.198-24.5S537.74,721.302,534.279,734.833z"/>
<path fill="#CFEDEC" d="M660.813,187.375c-0.173,1.45-1.376,2.625-2.688,2.625s-2.235-1.175-2.063-2.625s1.376-2.625,2.688-2.625
	S660.985,185.925,660.813,187.375z"/>
<path fill="#B3D1CF" d="M703.242,170.5c-0.235,1.979-1.878,3.583-3.669,3.583c-1.79,0-3.052-1.604-2.815-3.583
	c0.235-1.979,1.878-3.583,3.669-3.583C702.217,166.917,703.479,168.521,703.242,170.5z"/>
<path fill="#B3D1CF" d="M713.563,187.75c-0.311,1.795-2.018,3.25-3.813,3.25H676c-1.795,0-2.998-1.455-2.688-3.25l0,0
	c0.311-1.795,2.018-3.25,3.813-3.25h33.75C712.67,184.5,713.873,185.955,713.563,187.75L713.563,187.75z"/>
<polygon fill="#FFFFFF" points="571.019,251.062 639.518,239.456 599.856,361.104 526.324,385.143 "/>
<polygon fill="#FEA6A8" points="573.75,254.25 634.25,244 597,358.25 532,379.5 "/>
<path fill="#FCB3AF" d="M583,267.5c0,0,5-7.5,11.5-7.25s14.5-1.25,19-2.5s11-3,12.5,0.25s-0.25,10.5-7.5,11.25s-13.25,6.5-15,10
	s-1.5,6.5,2,9.75s8.75,9.25,8,14s-3.5,7.5-5.5,8.5s-4.5,7.75-3.75,11s-1.25,6.75-4.75,9.5s-10.25,11.5-12,15.25s-7,9.5-13,10.25
	s-11.5,1.25-12-7.25s6.25-44.75,8.25-51.25S583,267.5,583,267.5z"/>
<path fill="#E99092" d="M569,281.25c0,0-3.25,6.75-5.5,9.25s-6.25,15-7.5,19.5s-2.25,15.5-3.25,26.75s-0.5,16.25-1,20.75
	s0.25,8.25,6.75,7.25c0,0,9.499-3.25,13.166-8.25c0,0-2.166-5.167,2.834-10.167s12.333-11.833,12.333-11.833
	s2.001-2.667,1.667-3.833s-1.334-1.167-2.334-1.667s-1.499-0.833,0.334-2.833s3.333-3,2.333-5.667s-1.166-6.333,1.167-7
	s7.167-2.5,7.167-4.167s-2.501-7.5-5.501-11s-5.332-6-4.999-8.5s0.166-4.167-0.167-5.167s-1-2.167,0-5.667
	s1.334-14.167-3.333-15.667S572.333,267.5,569,281.25z"/>
<path fill="#FFFFFF" d="M567.832,313c-0.454,0-0.864-0.311-0.973-0.772c-0.126-0.538,0.208-1.076,0.745-1.202
	c6.449-1.512,14.096-4.355,13.896-9.319c-0.143-3.556-3.937-5.64-3.976-5.66c-0.309-0.167-0.508-0.483-0.524-0.833
	s0.152-0.684,0.444-0.879c1.686-1.124,3.814-3.877,4.957-5.705c-6.342,4.521-18.451,15.014-18.581,15.126
	c-0.417,0.361-1.048,0.318-1.411-0.1c-0.361-0.417-0.316-1.049,0.101-1.411c0.566-0.492,13.95-12.087,19.935-16.077
	c0.508-0.338,1.473-0.822,2.226-0.292c0.283,0.2,0.721,0.687,0.466,1.701c-0.364,1.457-3.041,5.351-5.443,7.519
	c1.447,1.104,3.677,3.315,3.806,6.531c0.204,5.08-4.99,8.898-15.438,11.347C567.984,312.992,567.907,313,567.832,313z"/>
<path fill="#FFFFFF" d="M596.332,279.833c-0.194,0-0.392-0.057-0.564-0.175c-0.455-0.312-0.571-0.933-0.26-1.388
	c0.291-0.426,7.29-10.452,23.02-10.019c0.552,0.015,0.987,0.475,0.973,1.027c-0.016,0.552-0.474,0.996-1.027,0.972
	c-14.584-0.383-21.249,9.054-21.315,9.15C596.964,279.681,596.65,279.833,596.332,279.833z"/>
<path fill="#FFFFFF" d="M603.953,290.024c-0.193,0-0.381-0.01-0.563-0.03c-3.415-0.379-5.982-4.835-6.264-5.341
	c-0.269-0.482-0.095-1.091,0.388-1.359c0.485-0.268,1.092-0.094,1.36,0.387c0.629,1.126,2.705,4.1,4.736,4.326
	c2.566,0.286,7.303-2.494,10.203-5.233c0.402-0.38,1.035-0.361,1.413,0.041c0.38,0.401,0.361,1.034-0.04,1.414
	C612.115,287.128,607.268,290.024,603.953,290.024z"/>
<path fill="#FFFFFF" d="M603.5,290c-0.101,0-0.203-0.016-0.305-0.048c-0.526-0.168-0.816-0.731-0.647-1.257l4-12.5
	c0.168-0.525,0.728-0.815,1.257-0.648c0.526,0.168,0.816,0.731,0.647,1.257l-4,12.5C604.316,289.729,603.924,290,603.5,290z"/>
<path fill="#FFFFFF" d="M572.166,357.667c-0.234,0-0.469-0.082-0.658-0.247c-1.497-1.31-2.45-4.213-0.207-8.087
	c1.618-2.795,4.792-6.673,8.492-10.373c0.891-0.891,2.099-1.863,3.268-2.802c1.809-1.455,4.061-3.265,4.303-4.233
	c0.127-0.507,0.134-0.889,0.02-1.074c-0.167-0.27-0.803-0.438-1.267-0.541c-0.984-0.218-1.672-0.835-1.887-1.693
	c-0.243-0.973,0.186-2.075,1.12-2.875c1.114-0.956,2.375-2.566,2.949-3.57c0.038-0.209-0.373-0.931-0.618-1.362
	c-0.476-0.835-1.014-1.781-1.014-2.808c0-2.649,1.513-5.5,4.833-5.5c1.418,0,2.778-0.576,3.637-1.54
	c0.857-0.962,1.216-2.292,1.037-3.846c-0.379-3.278-5.349-9.117-7.231-11.091c-0.381-0.399-0.366-1.033,0.033-1.414
	c0.398-0.382,1.03-0.368,1.414,0.033c0.295,0.309,7.238,7.628,7.771,12.242c0.312,2.7-0.66,4.43-1.53,5.406
	c-1.251,1.404-3.121,2.209-5.13,2.209c-2.754,0-2.833,3.142-2.833,3.5c0,0.498,0.399,1.2,0.752,1.818
	c0.591,1.039,1.261,2.216,0.616,3.344c-0.666,1.166-2.042,2.947-3.385,4.097c-0.419,0.359-0.518,0.726-0.48,0.872
	c0.034,0.135,0.277,0.203,0.38,0.226c0.988,0.219,1.98,0.546,2.534,1.441c0.417,0.676,0.489,1.53,0.219,2.611
	c-0.404,1.621-2.529,3.329-4.989,5.307c-1.127,0.906-2.292,1.843-3.106,2.657c-3.583,3.584-6.64,7.308-8.176,9.961
	c-1.634,2.823-1.133,4.77-0.207,5.58c0.416,0.364,0.458,0.996,0.095,1.411C572.721,357.551,572.444,357.667,572.166,357.667z"/>
<polygon fill="#FFFFFF" points="578.667,374.333 595.834,368.667 592.167,382.333 574.501,389.5 "/>
<polygon fill="none" stroke="#E8FF13" stroke-width="3.5" stroke-miterlimit="10" points="519.75,386 595.25,391.25 647.5,233 
	572,230.25 "/>
<polygon fill="none" stroke="#00F704" stroke-width="3.5" stroke-miterlimit="10" points="657,330.25 729,334 703.25,413.75 
	631,409.25 "/>
<polygon fill="none" stroke="#FF11F6" stroke-width="3.5" stroke-miterlimit="10" points="479.5,542.5 563.25,550 588.75,474.5 
	504,467.5 "/>
<polygon fill="none" stroke="#F5A849" stroke-width="3.5" stroke-miterlimit="10" points="439.5,681 511.25,689 550.75,566.25 
	479.75,559.75 "/>
</svg>
